<svg xmlns="http://www.w3.org/2000/svg" viewBox="0 0 176.14 177.81"><defs><style>.cls-1{fill:#5cbc55;}</style></defs><title>LOGO-whatsapp</title><g id="Capa_2" data-name="Capa 2"><g id="Capa_1-2" data-name="Capa 1"><g id="Wawa"><path class="cls-1" d="M1.3,177.81c.94-3.8,1.81-7.35,2.69-10.89,2.71-10.92,5.44-21.84,8.1-32.77a3.34,3.34,0,0,0-.42-2.19A86.16,86.16,0,0,1,.39,96.51C-1.47,75.57,3.25,56.15,15.16,38.75,29.3,18.08,48.82,5.1,73.56,1.26c32.59-5.06,60.13,5.15,81.9,30A80.84,80.84,0,0,1,175.54,77c3.62,35.25-9.12,63.51-38,84-16,11.37-34.29,16-53.88,15.09a85.7,85.7,0,0,1-36.95-10.29,3.22,3.22,0,0,0-2.64-.27q-20.77,6-41.56,12C2.19,177.62,1.9,177.68,1.3,177.81ZM22.53,156c7.87-2.26,15.44-4.4,23-6.65a4.27,4.27,0,0,1,4,.54,71.41,71.41,0,0,0,51.79,10.73,70.69,70.69,0,0,0,44.15-25.44c13.67-16.57,19-35.7,16.18-57a69.27,69.27,0,0,0-18.23-38.84c-17.63-18.92-39.5-26.76-65.06-23.24C59.38,18.72,43.83,27.93,31.92,42.89,19.4,58.62,14.37,76.68,16.44,96.64A71.37,71.37,0,0,0,28.23,129a3.19,3.19,0,0,1,.4,2.16c-.81,3.63-1.76,7.22-2.65,10.83C24.85,146.57,23.73,151.13,22.53,156Z"/><path class="cls-1" d="M112.08,127.71A59.54,59.54,0,0,1,91.34,123c-24.08-9.69-39.23-27.4-46.77-52-3.8-12.43,4.35-21.22,12.24-25.13a7.13,7.13,0,0,1,9.94,3.46C69,54.29,71,59.49,72.83,64.7A8.13,8.13,0,0,1,70.44,74a36.77,36.77,0,0,0-3.85,4.33,2.16,2.16,0,0,0-.26,1.8c2.35,6.07,6.37,10.93,11.19,15.18A76.85,76.85,0,0,0,98,107.94a1.54,1.54,0,0,0,2-.42c2.29-2.48,4.63-4.92,7-7.35,2.81-2.93,5.33-3.6,9-1.84,4.32,2.08,8.51,4.45,12.69,6.8,3.55,2,3.81,5.3,3.15,8.83-1.41,7.58-5.65,11.65-13.63,13.05C116,127.39,113.73,127.52,112.08,127.71Z"/></g></g></g></svg>